<svg id="Logo" xmlns="http://www.w3.org/2000/svg" viewBox="0 0 262.14 72.7"><defs><style>.cls-1,.cls-2{fill:#f5d334;}.cls-1{stroke:#363737;stroke-miterlimit:10;stroke-width:2px;}.cls-3{fill:#363737;}.cls-4{fill:#fff;}</style></defs><title>logo</title><g id="乐听pic"><path class="cls-1" d="M204.91,580.35a14.75,14.75,0,1,1-14.75-14.75A14.75,14.75,0,0,1,204.91,580.35Z" transform="translate(-166.57 -537.25)"/><path class="cls-2" d="M191.45,551.71a10.68,10.68,0,0,1-2.13,2.58H169.45v48.29h42V559.65h3.12v46.06h-48v-54Z" transform="translate(-166.57 -537.25)"/><polygon class="cls-2" points="48.93 22.39 48.94 69.46 6.94 69.46 6.94 68.46 3.88 68.46 3.88 72.46 52 72.46 52 22.39 48.93 22.39"/><path class="cls-1" d="M199.88,580.14a9.51,9.51,0,1,1-9.51-9.5A9.5,9.5,0,0,1,199.88,580.14Z" transform="translate(-166.57 -537.25)"/><rect class="cls-3" x="20.33" y="40.04" width="6.33" height="0.99"/><rect class="cls-3" x="20.42" y="42.1" width="6.33" height="0.99"/><rect class="cls-3" x="20.33" y="44.43" width="6.33" height="0.99"/><path class="cls-2" d="M188.65,562.5s14.25-22.75,29.25-25.25c0,0-19.75,14.13-23.12,25.25" transform="translate(-166.57 -537.25)"/></g><path class="cls-4" d="M231.26,586.32v-33.9H246V583q0,3.29-3.29,3.28Zm5.47-19.22h3.9v-10h-3.9Zm3.9,14.07v-9.38h-3.9v10H240C240.42,581.9,240.63,581.69,240.63,581.17Zm18.6-26.57v-2.81h5.62v2.81h1.25v5h-1.25v23.75q.15,3.75-3.28,3.6H252v-4.53h6.25c.62.1.94-.32.94-1.25V559.6H247.66v-5Zm-8.13,15.32.94-7.35h5.16l-1.1,8.6c-.21,2.91-1.61,4.27-4.22,4.06h-4.22v-4.38H250C250.63,571,251,570.65,251.1,569.92Z" transform="translate(-166.57 -537.25)"/><path class="cls-4" d="M273.45,560.07l3-8.59h6.1L282,553h24.22v4.38l-7.66,26.71c-.52,2.4-1.93,3.49-4.22,3.29H270.63V583h20.94c1.14.21,1.82-.31,2-1.56l6.72-23.91H280.79l-2.34,6.56c-.21,1.25-1.1,1.78-2.66,1.57h-5.31V561h1.87C273,561.12,273.34,560.8,273.45,560.07Zm20.62,17.81H280.16c-1.56.22-2.5-.2-2.81-1.25L273,568h6.4l2.82,4.53a1.11,1.11,0,0,0,1.4.78h10.47Z" transform="translate(-166.57 -537.25)"/><path class="cls-4" d="M340.79,552v-.63h5.31v3.75c.1,1.78-.78,2.56-2.65,2.35H332.82v10h13.75v4.84H332.82V584c.21,2.29-.89,3.38-3.28,3.28h-7.66V583h4.22c.63,0,.94-.26.94-.78v-10H315.16c-2.6.21-3.75-.88-3.43-3.28V552.57H340C340.53,552.68,340.79,552.47,340.79,552Zm-28.91,30.31h1.88a1.72,1.72,0,0,0,1.87-1.09l3-6.41h5.78l-4.06,9.37a3.4,3.4,0,0,1-3.12,2.19h-5.32Zm6.41-14.84H327v-10h-9.69v9.06C317.25,567.21,317.56,567.52,318.29,567.42Zm21.09,16.71-3.59-9.53h5.62l2.5,6.25q.48,1.57,1.41,1.41h1.56v4.06H342.2A2.86,2.86,0,0,1,339.38,584.13Z" transform="translate(-166.57 -537.25)"/><path class="cls-4" d="M380.32,551h5v3c0,1.87-1,2.76-3.12,2.65h-9.54v5h12.66v4.69h-1.87v20.31h-5.32V566.32h-5.47V582c.11,3-1.3,4.48-4.21,4.37H363.6v-3.75c-.31,1.67-1.46,2.5-3.44,2.5h-8.9v-32.5h12.5v28.6H366c.72,0,1.09-.42,1.09-1.25V552.26h12.34C380,552.37,380.32,552,380.32,551ZM356,579.13h2c.83.11,1.25-.41,1.25-1.56V557.73H356Z" transform="translate(-166.57 -537.25)"/><path class="cls-4" d="M391,551.32h33.59v32.35c.21,2.91-1,4.27-3.59,4.06H415v-4.38h3.12c.83,0,1.25-.47,1.25-1.4V556.32H396v30.94h-5Zm8.75,21.41-3.6-14.06h4.22l1.56,6.56,1.72-6.41h7.81l1.72,5.78,1.72-5.78h4.06l-3.75,12.35,2.5,10.31H413.6l-.62-3-1.57,5.16h-4.06l3.75-12.5-3.44-11.25-3.9,12.81,3.12,10.94h-4.22l-1.09-4.54-1.25,4.54h-3.91Z" transform="translate(-166.57 -537.25)"/><path class="cls-4" d="M232,609.71l-3.8-14.32h1.94l2.18,9.39c.24,1,.44,2,.61,2.93.36-1.53.58-2.42.64-2.65l2.73-9.67h2.28l2,7.25a37.77,37.77,0,0,1,1.12,5.07c.18-.91.42-2,.71-3.12l2.25-9.2h1.9l-3.93,14.32h-1.82l-3-10.91q-.37-1.37-.45-1.68-.22,1-.42,1.68l-3,10.91Z" transform="translate(-166.57 -537.25)"/><path class="cls-4" d="M250.91,609.71l-3.8-14.32h1.94l2.18,9.39c.23,1,.44,2,.6,2.93.37-1.53.58-2.42.65-2.65l2.72-9.67h2.29l2.05,7.25a37.66,37.66,0,0,1,1.11,5.07c.19-.91.42-2,.72-3.12l2.24-9.2h1.91l-3.93,14.32h-1.83l-3-10.91q-.39-1.37-.45-1.68-.23,1-.42,1.68l-3,10.91Z" transform="translate(-166.57 -537.25)"/><path class="cls-4" d="M269.78,609.71,266,595.39h1.94l2.18,9.39c.23,1,.43,2,.6,2.93.37-1.53.58-2.42.65-2.65l2.72-9.67h2.29l2.05,7.25a39.26,39.26,0,0,1,1.11,5.07c.18-.91.42-2,.71-3.12l2.25-9.2h1.9l-3.92,14.32h-1.83l-3-10.91q-.37-1.37-.45-1.68c-.14.66-.29,1.22-.42,1.68l-3,10.91Z" transform="translate(-166.57 -537.25)"/><path class="cls-4" d="M285.33,609.71v-2h2v2Z" transform="translate(-166.57 -537.25)"/><path class="cls-4" d="M290.54,609.71V595.39h1.89V608h7.05v1.69Z" transform="translate(-166.57 -537.25)"/><path class="cls-4" d="M301.78,609.71V595.39h10.35v1.69h-8.46v4.39h7.92v1.68h-7.92V608h8.79v1.69Z" transform="translate(-166.57 -537.25)"/><path class="cls-4" d="M315,609.71V595.39h1.89V608h7.05v1.69Z" transform="translate(-166.57 -537.25)"/><path class="cls-4" d="M326.52,609.71V595.39h1.9v14.32Z" transform="translate(-166.57 -537.25)"/><path class="cls-4" d="M331.11,605.11l1.79-.16a3.82,3.82,0,0,0,.59,1.76,3.29,3.29,0,0,0,1.44,1.12,5.5,5.5,0,0,0,2.2.42,5.13,5.13,0,0,0,1.91-.32,2.63,2.63,0,0,0,1.24-.88,2.08,2.08,0,0,0,.4-1.23,1.88,1.88,0,0,0-.39-1.18,3,3,0,0,0-1.29-.84,25.47,25.47,0,0,0-2.55-.7,12.84,12.84,0,0,1-2.76-.89,4,4,0,0,1-1.53-1.33,3.33,3.33,0,0,1-.5-1.79,3.62,3.62,0,0,1,.61-2,3.76,3.76,0,0,1,1.8-1.43,6.74,6.74,0,0,1,2.63-.49,7.22,7.22,0,0,1,2.81.51,4.09,4.09,0,0,1,1.87,1.51,4.37,4.37,0,0,1,.7,2.26l-1.82.13a3,3,0,0,0-1-2,3.85,3.85,0,0,0-2.49-.69,4,4,0,0,0-2.51.63,1.89,1.89,0,0,0-.78,1.52,1.64,1.64,0,0,0,.55,1.27,7.68,7.68,0,0,0,2.86,1,19.42,19.42,0,0,1,3.17.91,4.26,4.26,0,0,1,1.84,1.46,3.55,3.55,0,0,1,.6,2,3.88,3.88,0,0,1-.66,2.15,4.25,4.25,0,0,1-1.88,1.57,6.41,6.41,0,0,1-2.75.56,8.36,8.36,0,0,1-3.26-.56,4.56,4.56,0,0,1-2.06-1.71A4.84,4.84,0,0,1,331.11,605.11Z" transform="translate(-166.57 -537.25)"/><path class="cls-4" d="M348.74,609.71V597.08H344v-1.69h11.35v1.69h-4.74v12.63Z" transform="translate(-166.57 -537.25)"/><path class="cls-4" d="M357.35,609.71V595.39H367.7v1.69h-8.45v4.39h7.92v1.68h-7.92V608H368v1.69Z" transform="translate(-166.57 -537.25)"/><path class="cls-4" d="M370.63,609.71V595.39h1.95l7.52,11.24V595.39h1.81v14.32H380l-7.52-11.25v11.25Z" transform="translate(-166.57 -537.25)"/><path class="cls-4" d="M385.37,609.71v-2h2v2Z" transform="translate(-166.57 -537.25)"/><path class="cls-4" d="M390.63,609.71V595.39h1.95l7.52,11.24V595.39h1.81v14.32H400l-7.52-11.25v11.25Z" transform="translate(-166.57 -537.25)"/><path class="cls-4" d="M405.14,609.71V595.39h10.35v1.69H407v4.39H415v1.68H407V608h8.79v1.69Z" transform="translate(-166.57 -537.25)"/><path class="cls-4" d="M422.08,609.71V597.08h-4.72v-1.69h11.35v1.69H424v12.63Z" transform="translate(-166.57 -537.25)"/></svg>